<svg width="10" height="10" viewBox="0 0 10 10" fill="none" xmlns="http://www.w3.org/2000/svg">
<path d="M5.00008 7.33366C6.29058 7.33366 7.33341 6.29083 7.33341 5.00033C7.33341 3.70982 6.29058 2.66699 5.00008 2.66699C3.70958 2.66699 2.66675 3.70982 2.66675 5.00033C2.66675 6.29083 3.70958 7.33366 5.00008 7.33366Z" fill="white"/>
<path d="M4.99037 0C4.29672 0 3.64162 0.141297 3.03789 0.398202C3.46179 0.687219 3.79576 1.10469 3.98844 1.59281C4.30315 1.50289 4.64355 1.45151 4.99037 1.45151C6.94926 1.45151 8.54207 3.03789 8.54207 5.00321C8.54207 6.96853 6.95568 8.55491 4.99037 8.55491C3.08285 8.55491 1.52216 7.0456 1.44509 5.15735C0.91201 5.13166 0.417469 4.94541 0.0128452 4.64354C0.00642261 4.76557 0 4.8876 0 5.00963C0 7.76493 2.23507 10 4.99037 10C7.74566 10 9.98073 7.76493 9.98073 5.00963C9.98073 2.25433 7.75209 0 4.99037 0Z" fill="white"/>
<path d="M1.57347 3.69285C2.20931 3.69285 2.72312 3.17904 2.72312 2.5432C2.72312 1.90736 2.20931 1.39355 1.57347 1.39355C0.937637 1.39355 0.423828 1.90736 0.423828 2.5432C0.423828 3.17904 0.937637 3.69285 1.57347 3.69285Z" fill="white"/>
</svg>
