<svg width="15" height="16" viewBox="0 0 15 16" fill="none" xmlns="http://www.w3.org/2000/svg">
<path d="M7.5 11.1479C9.43575 11.1479 11 9.5837 11 7.64795C11 5.71219 9.43575 4.14795 7.5 4.14795C5.56425 4.14795 4 5.71219 4 7.64795C4 9.5837 5.56425 11.1479 7.5 11.1479Z" fill="#3B445E"/>
<path d="M7.48555 0.147949C6.44509 0.147949 5.46243 0.359895 4.55684 0.745252C5.19268 1.17878 5.69364 1.80498 5.98266 2.53716C6.45472 2.40228 6.96532 2.32521 7.48555 2.32521C10.4239 2.32521 12.8131 4.70479 12.8131 7.65277C12.8131 10.6007 10.4335 12.9803 7.48555 12.9803C4.62428 12.9803 2.28324 10.7163 2.16763 7.88398C1.36802 7.84544 0.626204 7.56606 0.0192678 7.11327C0.00963391 7.29631 0 7.47936 0 7.6624C0 11.7953 3.3526 15.1479 7.48555 15.1479C11.6185 15.1479 14.9711 11.7953 14.9711 7.6624C14.9711 3.52945 11.6281 0.147949 7.48555 0.147949Z" fill="#030A1E"/>
<path d="M2.36021 5.68771C3.31397 5.68771 4.08468 4.917 4.08468 3.96324C4.08468 3.00948 3.31397 2.23877 2.36021 2.23877C1.40646 2.23877 0.635742 3.00948 0.635742 3.96324C0.635742 4.917 1.40646 5.68771 2.36021 5.68771Z" fill="#030A1E"/>
</svg>
