<svg width="195" height="50" viewBox="0 0 195 50" fill="none" xmlns="http://www.w3.org/2000/svg">
<path d="M102.605 27.9549V0.971985H107.465V27.8771H102.605V27.9549Z" fill="white"/>
<path d="M130.813 5.34601V27.9549H125.875V5.34601H116.31V0.971985H140.455V5.34601H130.813Z" fill="white"/>
<path d="M194.324 27.9549H174.553V0.971985H179.413V23.5809H194.324V27.9549Z" fill="white"/>
<path d="M53.4215 16.0381C55.9293 15.8826 57.8733 15.0661 59.3313 13.6858C60.7893 12.3056 61.4309 10.6143 61.4309 8.49532C61.4309 7.03731 61.0226 5.65706 60.3033 4.52953C59.5646 3.402 58.5148 2.50776 57.1346 1.94399C55.7543 1.30247 54.1408 0.971985 52.1968 0.971985H38.9192V5.34601H43.7792H45.004H52.2162C53.5965 5.34601 54.6463 5.59874 55.385 6.1625C56.1237 6.72626 56.5125 7.46499 56.5125 8.51476C56.5125 9.48676 56.1043 10.3032 55.385 10.867C54.6463 11.4308 53.5965 11.7613 52.2162 11.7613H45.004H43.7792H38.9192V27.9743H43.7792V16.1353H47.6672L56.3375 27.8771H62.5001L53.4215 16.0381Z" fill="white"/>
<path d="M91.5243 13.9386V13.8608C92.1658 13.297 92.6518 12.4805 93.0601 11.5085C93.4683 10.5365 93.6239 9.56452 93.6239 8.51476C93.6239 7.05675 93.2156 5.75426 92.4963 4.62673C91.7576 3.4992 90.7078 2.60496 89.2498 1.94399C87.8696 1.30247 86.256 0.971985 84.312 0.971985H71.1899V5.34601H76.05H77.6635H84.4676C85.8478 5.34601 86.8976 5.59874 87.6363 6.1625C88.375 6.72626 88.7638 7.46499 88.7638 8.51476C88.7638 9.56452 88.4333 10.381 87.7141 10.9448C86.9753 11.5085 86.0033 11.7613 84.7203 11.7613H77.6635H76.05H71.1899V27.9743H84.3898C86.256 27.9743 87.8696 27.5661 89.2498 26.7496C90.6301 25.9331 91.7576 24.9611 92.4963 23.6781C93.2351 22.3756 93.6239 20.9953 93.6239 19.5373C93.6239 18.5653 93.3711 17.5155 92.9823 16.4658C92.5935 15.3188 92.1075 14.5023 91.5243 13.9386ZM87.5585 22.3756C86.7421 23.1921 85.77 23.6003 84.3898 23.6003H76.05V16.213H84.7203C86.0228 16.213 86.9948 16.4658 87.7141 17.0295C88.3556 17.5933 88.7638 18.4098 88.7638 19.4596C88.7055 20.5871 88.375 21.5591 87.5585 22.3756Z" fill="white"/>
<path d="M157.213 0.971985H152.352V1.04975L158.845 16.1936H145.373L140.047 27.9355H145.393L148.795 20.6454H160.848L164.172 27.9355H169.518L157.213 0.971985Z" fill="white"/>
<path d="M1.82739 49.8251V37.4417H4.10189V49.8445H1.82739V49.8251Z" fill="white"/>
<path d="M22.9976 49.8251H21.1314L14.3273 41.2325V49.8251H12.0723V37.4417H14.0163L20.8203 45.9565V37.4417H23.0948V49.8445H22.9976V49.8251Z" fill="white"/>
<path d="M36.3142 39.4635V49.8251H34.0397V39.4635H29.5879V37.4417H40.6882V39.4635H36.3142Z" fill="white"/>
<path d="M57.6981 49.8251H47.978V37.4417H57.5426V39.4635H50.1748V42.535H56.4928V44.5568H50.1748V47.8033H57.6981V49.8251Z" fill="white"/>
<path d="M74.5335 49.8251H65.3772V37.4417H67.6517V47.8033H74.5335V49.8251Z" fill="white"/>
<path d="M90.6103 49.8251H81.5317V37.4417H83.8062V47.8033H90.688V49.8251H90.6103Z" fill="white"/>
<path d="M98.0754 49.8251V37.4417H100.35V49.8445H98.0754V49.8251Z" fill="white"/>
<path d="M120.684 47.1618C120.354 47.5701 120.121 47.8033 119.946 47.9783C119.946 48.0561 119.868 48.0561 119.868 48.0561C119.382 48.5421 118.818 48.9503 118.157 49.1836C117.516 49.4169 116.777 49.6696 116.058 49.8251L115.727 49.9029C115.572 49.9029 115.319 49.9029 115.086 49.9029H114.6C113.297 49.9029 112.092 49.5724 111.042 49.0864C109.992 48.5226 109.176 47.7839 108.612 46.8119C108.048 45.8399 107.718 44.7124 107.718 43.4876C107.718 42.2629 108.048 41.1354 108.612 40.1634C109.176 39.1914 110.07 38.4526 111.12 37.8889C112.17 37.3251 113.394 37.0724 114.775 37.0724C116.233 37.0724 117.613 37.4806 118.818 38.1999C120.043 38.9386 120.918 39.9884 121.501 41.3687H119.071C118.663 40.6299 118.099 40.0662 117.36 39.7551C116.621 39.3469 115.824 39.1914 114.852 39.1914C113.88 39.1914 113.142 39.3469 112.422 39.7551C111.684 40.1634 111.12 40.6494 110.712 41.2909C110.303 41.9324 110.148 42.7489 110.148 43.5654C110.148 44.3819 110.303 45.1012 110.634 45.7621C111.042 46.4037 111.606 46.9869 112.345 47.2979C113.083 47.6284 113.803 47.8617 114.697 47.9394H114.95C115.591 47.9394 116.252 47.8617 116.816 47.6089C117.38 47.3757 117.943 47.0452 118.429 46.6369C118.915 46.1509 119.246 45.5872 119.401 44.9262H114.541V42.9044H121.831V43.2349C121.831 43.3904 121.831 43.6432 121.831 43.8764C121.656 45.14 121.345 46.1898 120.684 47.1618Z" fill="white"/>
<path d="M138.589 49.8251H128.869V37.4417H138.433V39.4635H131.143V42.535H137.461V44.5568H131.143V47.8033H138.686V49.8251H138.589Z" fill="white"/>
<path d="M156.804 49.8251H154.938L148.134 41.2325V49.8251H145.859V37.4417H147.803L154.607 45.9565V37.4417H156.882V49.8445H156.804V49.8251Z" fill="white"/>
<path d="M177.1 45.7037L176.536 46.8312C175.797 47.881 175 48.6975 174.028 49.1835C173.056 49.6695 171.928 50 170.548 50H170.218C168.915 50 167.71 49.6695 166.66 49.1835C165.61 48.6197 164.794 47.881 164.23 46.909C163.666 45.937 163.336 44.8095 163.336 43.5847C163.336 42.36 163.666 41.2325 164.23 40.2605C164.794 39.2885 165.688 38.5497 166.738 37.986C167.788 37.4222 169.012 37.1695 170.393 37.1695C171.851 37.1695 173.231 37.5777 174.436 38.297C175.661 39.0357 176.536 40.0855 177.119 41.4658H174.689C174.281 40.727 173.717 40.1633 172.978 39.8522C172.24 39.444 171.442 39.2885 170.47 39.2885C169.498 39.2885 168.76 39.444 168.04 39.8522C167.302 40.2605 166.738 40.7465 166.33 41.388C165.921 42.0295 165.766 42.846 165.766 43.6625C165.766 44.479 165.921 45.1983 166.252 45.8592C166.66 46.5008 167.224 47.084 167.963 47.395C168.701 47.7255 169.421 47.9588 170.315 48.0365H170.645C171.54 48.0365 172.259 47.8032 173.075 47.395C173.814 46.9868 174.378 46.5008 174.786 45.7815L177.1 45.7037Z" fill="white"/>
<path d="M193.74 49.8251H184.02V37.4417H193.585V39.4635H186.295V42.535H192.613V44.5568H186.295V47.8033H193.838V49.8251H193.74Z" fill="white"/>
<path d="M15.105 0C13.0055 0 11.0226 0.427683 9.19518 1.20529C10.4782 2.08009 11.4891 3.3437 12.0723 4.82115C13.0249 4.54899 14.0552 4.39347 15.105 4.39347C21.0342 4.39347 25.8554 9.19518 25.8554 15.1439C25.8554 21.0925 21.0537 25.8943 15.105 25.8943C9.33127 25.8943 4.60731 21.3258 4.37403 15.6104C2.7605 15.5327 1.26361 14.9689 0.0388803 14.0552C0.0194401 14.4246 0 14.7939 0 15.1633C0 23.5031 6.76517 30.2683 15.105 30.2683C23.4448 30.2683 30.21 23.5031 30.21 15.1633C30.21 6.82349 23.4642 0 15.105 0Z" fill="white"/>
<path d="M4.76299 11.178C6.68756 11.178 8.24277 9.6228 8.24277 7.69823C8.24277 5.77366 6.68756 4.21844 4.76299 4.21844C2.83841 4.21844 1.2832 5.77366 1.2832 7.69823C1.2832 9.6228 2.83841 11.178 4.76299 11.178Z" fill="white"/>
</svg>
