<svg width="15" height="16" viewBox="0 0 15 16" fill="none" xmlns="http://www.w3.org/2000/svg">
<path d="M7.5 11.582C9.43575 11.582 11 10.0178 11 8.08203C11 6.14628 9.43575 4.58203 7.5 4.58203C5.56425 4.58203 4 6.14628 4 8.08203C4 10.0178 5.56425 11.582 7.5 11.582Z" fill="white"/>
<path d="M7.48555 0.582031C6.44509 0.582031 5.46243 0.793977 4.55684 1.17933C5.19268 1.61286 5.69364 2.23906 5.98266 2.97124C6.45472 2.83637 6.96532 2.75929 7.48555 2.75929C10.4239 2.75929 12.8131 5.13887 12.8131 8.08685C12.8131 11.0348 10.4335 13.4144 7.48555 13.4144C4.62428 13.4144 2.28324 11.1504 2.16763 8.31806C1.36802 8.27953 0.626204 8.00014 0.0192678 7.54735C0.00963391 7.73039 0 7.91344 0 8.09648C0 12.2294 3.3526 15.582 7.48555 15.582C11.6185 15.582 14.9711 12.2294 14.9711 8.09648C14.9711 3.96353 11.6281 0.582031 7.48555 0.582031Z" fill="white"/>
<path d="M2.36033 6.12179C3.31409 6.12179 4.0848 5.35108 4.0848 4.39732C4.0848 3.44356 3.31409 2.67285 2.36033 2.67285C1.40658 2.67285 0.635864 3.44356 0.635864 4.39732C0.635864 5.35108 1.40658 6.12179 2.36033 6.12179Z" fill="white"/>
</svg>
