<svg width="430" height="111" fill="none" xmlns="http://www.w3.org/2000/svg"><path d="M227.045 61.859V2.15h10.754v59.536h-10.754v.172ZM289.463 11.83v50.029h-10.927v-50.03h-21.164V2.152h53.427v9.679h-21.336ZM430 61.859h-43.749V2.15h10.755V52.18H430v9.679ZM118.211 35.49c5.55-.345 9.851-2.152 13.078-5.206 3.226-3.054 4.645-6.797 4.645-11.485 0-3.227-.903-6.281-2.495-8.776-1.634-2.495-3.957-4.474-7.011-5.721-3.055-1.42-6.625-2.151-10.927-2.151h-29.38v9.679h29.423c3.054 0 5.377.559 7.012 1.806 1.635 1.248 2.495 2.883 2.495 5.206 0 2.15-.903 3.957-2.495 5.205-1.635 1.247-3.958 1.978-7.012 1.978H86.121v35.877h10.754V35.704h8.603l19.186 25.983H138.3l-20.089-26.198ZM202.525 30.843v-.172c1.42-1.247 2.495-3.054 3.398-5.205.904-2.15 1.248-4.302 1.248-6.624 0-3.227-.903-6.109-2.495-8.604-1.635-2.495-3.958-4.474-7.184-5.936-3.054-1.42-6.625-2.151-10.926-2.151h-29.037v9.679h29.381c3.054 0 5.377.559 7.012 1.806 1.634 1.248 2.495 2.883 2.495 5.206 0 2.323-.732 4.13-2.323 5.377-1.635 1.247-3.786 1.806-6.625 1.806H157.529v35.877h29.209c4.129 0 7.7-.904 10.754-2.71 3.054-1.807 5.549-3.958 7.184-6.797 1.635-2.882 2.495-5.936 2.495-9.163 0-2.15-.559-4.474-1.42-6.796-.86-2.538-1.935-4.345-3.226-5.593Zm-8.775 18.67c-1.807 1.806-3.958 2.71-7.012 2.71h-18.455V35.876h19.186c2.882 0 5.033.56 6.625 1.807 1.419 1.248 2.323 3.054 2.323 5.377-.129 2.495-.861 4.646-2.667 6.453ZM347.88 2.15h-10.754v.173l14.368 33.51h-29.811l-11.787 25.983h11.83l7.528-16.132h26.67l7.356 16.132h11.83L347.88 2.15ZM4.044 110.253V82.851h5.033v27.445H4.044v-.043ZM50.89 110.253h-4.13L31.704 91.239v19.014h-4.99V82.851h4.301l15.056 18.842V82.851h5.033v27.445h-.215v-.043ZM80.356 87.325v22.928h-5.033V87.325h-9.85V82.85h24.562v4.474h-9.679ZM127.675 110.253h-21.508V82.851h21.164v4.474h-16.304v6.797h13.981v4.473h-13.981v7.184h16.648v4.474ZM164.928 110.253h-20.261V82.851h5.033v22.928h15.228v4.474ZM200.503 110.253h-20.089V82.851h5.033v22.928h15.228v4.474h-.172ZM217.022 110.253V82.851h5.033v27.445h-5.033v-.043ZM267.051 104.36c-.731.903-1.248 1.419-1.635 1.806 0 .173-.172.173-.172.173-1.075 1.075-2.323 1.978-3.785 2.495-1.42.516-3.055 1.075-4.646 1.419l-.732.172H253.587c-2.883 0-5.55-.731-7.873-1.807-2.323-1.247-4.129-2.882-5.377-5.033a14.576 14.576 0 0 1-1.979-7.355c0-2.71.732-5.206 1.979-7.356 1.248-2.151 3.226-3.786 5.549-5.033 2.323-1.248 5.033-1.807 8.088-1.807 3.226 0 6.28.903 8.947 2.495 2.71 1.635 4.646 3.957 5.937 7.012h-5.378c-.903-1.635-2.15-2.882-3.785-3.57-1.635-.904-3.398-1.248-5.549-1.248-2.151 0-3.786.344-5.377 1.247-1.635.904-2.883 1.979-3.786 3.398-.903 1.42-1.247 3.227-1.247 5.034 0 1.806.344 3.398 1.075 4.861.903 1.419 2.151 2.71 3.785 3.398 1.635.731 3.227 1.247 5.206 1.419h.559c1.419 0 2.882-.172 4.129-.731a13.834 13.834 0 0 0 3.571-2.151c1.075-1.075 1.807-2.323 2.151-3.785h-10.755v-4.474h16.132v2.151c-.387 2.796-1.076 5.119-2.538 7.27ZM306.67 110.253h-21.509V82.851h21.164v4.474h-16.131v6.797h13.981v4.473h-13.981v7.184h16.691v4.474h-.215ZM346.977 110.253h-4.13l-15.056-19.014v19.014h-5.033V82.851h4.302l15.056 18.842V82.851h5.033v27.445h-.172v-.043ZM391.887 101.133l-1.248 2.495c-1.634 2.323-3.398 4.13-5.549 5.206-2.151 1.075-4.646 1.806-7.7 1.806h-.731c-2.883 0-5.55-.731-7.873-1.806-2.322-1.248-4.129-2.883-5.377-5.033a14.581 14.581 0 0 1-1.978-7.356c0-2.71.731-5.205 1.978-7.356 1.248-2.151 3.227-3.786 5.55-5.033 2.322-1.248 5.033-1.807 8.087-1.807 3.226 0 6.28.903 8.947 2.495 2.71 1.635 4.646 3.957 5.937 7.012h-5.377c-.904-1.635-2.151-2.882-3.786-3.57-1.635-.904-3.398-1.248-5.549-1.248-2.151 0-3.786.344-5.377 1.247-1.635.904-2.882 1.98-3.786 3.399-.903 1.42-1.247 3.226-1.247 5.033 0 1.806.344 3.398 1.075 4.861.903 1.419 2.151 2.71 3.786 3.398 1.634.731 3.226 1.247 5.205 1.42h.731c1.979 0 3.57-.517 5.377-1.42 1.635-.903 2.882-1.979 3.786-3.57l5.119-.173ZM428.71 110.253h-21.509V82.851h21.164v4.474h-16.131v6.797h13.981v4.473h-13.981v7.184h16.691v4.474h-.215ZM33.424 0c-4.645 0-9.033.946-13.077 2.667a17.448 17.448 0 0 1 6.367 8.001 24.551 24.551 0 0 1 6.71-.946c13.12 0 23.789 10.625 23.789 23.788 0 13.164-10.625 23.789-23.789 23.789-12.776 0-23.229-10.11-23.745-22.756A17.42 17.42 0 0 1 .086 31.1C.043 31.92 0 32.736 0 33.553c0 18.455 14.97 33.425 33.424 33.425 18.455 0 33.425-14.97 33.425-33.425C66.849 15.1 51.922 0 33.424 0Z" fill="#fff"/><path d="M10.54 24.735c4.258 0 7.7-3.441 7.7-7.7s-3.442-7.7-7.7-7.7a7.692 7.692 0 0 0-7.7 7.7c0 4.259 3.44 7.7 7.7 7.7Z" fill="#fff"/></svg>